<svg xmlns="http://www.w3.org/2000/svg" viewBox="0 0 477 477">
  <rect width="477" height="477" fill="#f4ede3"/>
  <g transform="translate(0,353) scale(0.1,-0.1)" fill="#7e252c">
    <path d="M1125 2191 c-514 -80 -877 -333 -1009 -706 -49 -141 -60 -201 -59 -360 0 -152 8 -207 54 -364 100 -338 412 -605 804 -687 295 -62 652 -32 965 81 41 15 93 34 115 42 63 23 253 121 328 169 38 25 72 42 78 39 5 -4 9 -60 9 -126 l0 -119 185 0 185 0 1 113 c0 61 2 128 3 147 1 19 3 85 4 147 l2 111 82 32 c86 33 323 103 399 119 82 17 304 59 374 71 39 6 114 14 168 17 l97 6 0 -382 0 -381 180 0 180 0 2 393 3 392 197 3 196 2 31 81 c17 44 31 84 31 89 0 13 -56 17 -250 19 -102 1 -189 6 -194 11 -4 4 -11 218 -14 474 l-5 466 -179 0 -178 0 0 -489 0 -488 -72 -12 c-40 -6 -100 -16 -133 -21 -108 -17 -229 -39 -290 -54 -203 -49 -349 -90 -508 -144 -79 -26 -120 -36 -123 -28 -2 6 -5 286 -6 621 l-3 610 -182 3 -183 2 0 -728 0 -729 -22 -19 c-24 -21 -28 -24 -143 -101 -131 -87 -347 -181 -520 -226 -155 -41 -391 -53 -530 -28 -375 68 -596 286 -706 696 -9 32 -14 104 -13 205 0 138 3 165 28 249 72 248 190 401 392 508 110 58 213 89 362 109 120 15 137 15 256 0 129 -17 218 -38 316 -76 30 -12 69 -26 85 -33 17 -6 53 -23 82 -39 l52 -28 24 32 c28 37 67 112 67 127 0 33 -329 145 -530 181 -119 21 -352 21 -485 1z"/>
  </g>
</svg>